<svg width="1440" height="306" viewBox="0 0 1440 306" fill="none" xmlns="http://www.w3.org/2000/svg">
<rect x="1025" y="3" width="332" height="122" rx="28" fill="#FFE9DE" stroke="black" stroke-width="6"/>
<path d="M1084.19 40.88C1086.15 40.88 1087.88 41.3493 1089.38 42.288C1090.87 43.2267 1091.62 44.6347 1091.62 46.512C1091.62 49.4987 1089.25 52.592 1084.51 55.792C1081.27 57.8827 1078.88 59.7387 1077.34 61.36C1076.45 62.3413 1076 63.4507 1076 64.688C1076 65.712 1076.34 66.5013 1077.02 67.056C1077.75 67.6107 1078.65 67.888 1079.71 67.888C1081.89 67.888 1083.85 66.8427 1085.6 64.752C1087.35 62.6187 1088.46 60.3573 1088.93 57.968L1090.4 58.992C1089.38 62.4053 1087.73 65.2 1085.47 67.376C1083.25 69.552 1080.48 70.64 1077.15 70.64C1075.15 70.64 1073.44 70.1707 1072.03 69.232C1070.62 68.2507 1069.92 66.8 1069.92 64.88C1069.92 62.2347 1071.8 59.5253 1075.55 56.752C1075.94 56.4533 1076.47 56.0693 1077.15 55.6C1077.83 55.088 1078.3 54.7467 1078.56 54.576C1080.91 52.912 1082.68 51.5253 1083.87 50.416C1084.98 49.3067 1085.54 48.1547 1085.54 46.96C1085.54 44.7413 1084.32 43.632 1081.89 43.632C1079.71 43.632 1077.9 44.5493 1076.45 46.384C1075.04 48.176 1074.06 50.2667 1073.5 52.656L1072.03 51.632C1073.06 48.2187 1074.51 45.5733 1076.38 43.696C1078.26 41.8187 1080.86 40.88 1084.19 40.88ZM1112.71 40.88C1116.29 40.88 1119.09 41.84 1121.09 43.76C1123.1 45.68 1124.1 48.3893 1124.1 51.888C1124.1 56.6667 1122.39 60.9973 1118.98 64.88C1115.57 68.72 1111.51 70.64 1106.82 70.64C1103.36 70.64 1100.59 69.7653 1098.5 68.016C1096.45 66.2667 1095.43 63.7067 1095.43 60.336C1095.43 55.216 1097.07 50.6933 1100.36 46.768C1103.64 42.8427 1107.76 40.88 1112.71 40.88ZM1101.64 61.808C1101.64 63.7707 1101.96 65.3493 1102.6 66.544C1103.28 68.08 1104.62 68.848 1106.63 68.848C1108.8 68.848 1110.81 67.6533 1112.64 65.264C1114.48 62.8747 1115.84 60.2293 1116.74 57.328C1117.64 54.384 1118.08 51.7813 1118.08 49.52C1118.08 46.448 1117.23 44.336 1115.52 43.184C1114.93 42.8427 1114.18 42.672 1113.28 42.672C1110.98 42.672 1108.89 43.8453 1107.01 46.192C1105.18 48.5387 1103.81 51.1413 1102.92 54C1102.06 56.8587 1101.64 59.4613 1101.64 61.808ZM1151.34 59.312C1151.34 62.256 1149.89 64.88 1146.99 67.184C1144.09 69.488 1141.1 70.64 1138.03 70.64C1134.92 70.64 1132.51 69.6587 1130.8 67.696C1129.09 65.7333 1128.24 63.152 1128.24 59.952C1128.24 54.7893 1129.99 50.2453 1133.49 46.32C1136.99 42.3947 1141.27 40.432 1146.35 40.432C1148.14 40.432 1149.79 40.816 1151.28 41.584C1152.77 42.352 1153.52 43.5467 1153.52 45.168C1153.52 47.5147 1152.45 49.4133 1150.32 50.864C1148.19 52.3147 1145.71 53.4027 1142.9 54.128C1143.02 54.128 1143.17 54.1067 1143.34 54.064C1143.51 54.0213 1143.66 54 1143.79 54C1148.83 54 1151.34 55.7707 1151.34 59.312ZM1134.7 56.304C1134.45 57.584 1134.32 59.2053 1134.32 61.168C1134.32 63.1307 1134.68 64.8587 1135.41 66.352C1136.18 67.8027 1137.43 68.528 1139.18 68.528C1141.06 68.528 1142.51 67.6533 1143.54 65.904C1144.6 64.1547 1145.14 62.256 1145.14 60.208C1145.14 57.0507 1143.56 55.472 1140.4 55.472C1139.5 55.472 1138.52 55.536 1137.46 55.664C1136.18 55.8773 1135.26 56.0907 1134.7 56.304ZM1145.58 49.648C1146.69 48.2827 1147.25 46.6827 1147.25 44.848C1147.25 43.0133 1146.35 42.096 1144.56 42.096C1142.51 42.096 1140.55 43.504 1138.67 46.32C1136.79 49.136 1135.6 51.824 1135.09 54.384C1137.52 54.0853 1139.55 53.616 1141.17 52.976C1142.83 52.2933 1144.3 51.184 1145.58 49.648ZM1172.62 40.688L1167.56 54.832H1177.61L1182.41 41.52H1188.49C1187.98 42.928 1186.78 46.32 1184.91 51.696C1184.74 52.208 1184.48 52.912 1184.14 53.808C1183.84 54.6613 1183.63 55.2587 1183.5 55.6C1183.33 56.112 1183.07 56.7947 1182.73 57.648C1182.43 58.5013 1182.26 59.0133 1182.22 59.184C1181.96 59.9093 1181.64 60.848 1181.26 62C1180.96 62.9387 1180.79 63.472 1180.75 63.6C1180.49 64.4533 1180.36 65.2213 1180.36 65.904C1180.36 67.1413 1180.96 67.76 1182.16 67.76C1184.46 67.76 1186.46 65.392 1188.17 60.656C1188.56 59.376 1188.77 58.48 1188.81 57.968L1190.28 58.992C1188.11 66.7573 1184.65 70.64 1179.92 70.64C1178.81 70.64 1177.93 70.4907 1177.29 70.192C1176.01 69.4667 1175.22 68.464 1174.92 67.184C1174.75 66.672 1174.67 66.0747 1174.67 65.392C1174.67 64.4533 1174.82 63.4507 1175.12 62.384C1175.41 61.3173 1175.93 59.7173 1176.65 57.584L1176.97 56.56H1166.92L1162.19 70H1156.11L1165.64 43.248H1159.63L1160.2 41.52L1172.62 40.688ZM1210.56 40.688L1205.56 54.832H1210.75C1211.86 50.864 1213.9 47.5573 1216.89 44.912C1219.88 42.224 1223.36 40.88 1227.32 40.88C1230.44 40.88 1232.85 41.8613 1234.56 43.824C1236.26 45.7867 1237.12 48.304 1237.12 51.376C1237.12 56.4107 1235.41 60.8907 1232 64.816C1228.58 68.6987 1224.42 70.64 1219.52 70.64C1216.4 70.64 1214.01 69.7653 1212.35 68.016C1210.73 66.2667 1209.92 63.8347 1209.92 60.72C1209.92 59.184 1210.06 57.7973 1210.36 56.56H1204.92L1200.19 70H1194.11L1203.58 43.248H1197.63L1198.2 41.52L1210.56 40.688ZM1220.35 68.912C1222.1 68.912 1223.72 68.1013 1225.21 66.48C1226.75 64.816 1227.9 63.0667 1228.67 61.232C1229.48 59.3547 1230.1 57.4773 1230.52 55.6C1231.08 53.2533 1231.36 50.8 1231.36 48.24C1231.36 44.4853 1230.03 42.608 1227.39 42.608C1225.55 42.608 1223.87 43.3333 1222.33 44.784C1220.8 46.192 1219.56 47.9627 1218.62 50.096C1217.72 52.2293 1217.02 54.4053 1216.51 56.624C1216.04 58.8427 1215.8 60.8267 1215.8 62.576C1215.8 66.8 1217.32 68.912 1220.35 68.912ZM1240.98 70L1250.52 43.504H1244.76L1245.4 41.776L1257.49 40.88L1252.76 53.936H1256.21C1258.52 53.936 1260.18 52.8907 1261.21 50.8L1264.34 44.336C1265.41 42.032 1266.99 40.88 1269.08 40.88C1270.44 40.88 1271.57 41.2853 1272.47 42.096C1273.37 42.864 1273.81 43.9307 1273.81 45.296C1273.81 46.2773 1273.47 47.1733 1272.79 47.984C1272.15 48.752 1271.36 49.136 1270.42 49.136C1269.61 49.136 1268.93 48.88 1268.37 48.368C1267.82 47.856 1267.54 47.1947 1267.54 46.384C1267.54 45.616 1267.8 44.8907 1268.31 44.208C1268.74 43.5253 1269.4 43.0773 1270.29 42.864C1270.04 42.608 1269.61 42.48 1269.01 42.48C1268.5 42.48 1268.03 42.6293 1267.61 42.928C1267.18 43.184 1266.86 43.4613 1266.65 43.76C1266.48 44.0587 1266.24 44.4853 1265.94 45.04L1263.25 50.736C1262.7 51.888 1262.17 52.7413 1261.65 53.296C1261.14 53.8507 1260.37 54.3413 1259.35 54.768C1261.01 55.152 1262.27 55.7707 1263.13 56.624C1263.98 57.4347 1264.41 58.6507 1264.41 60.272C1264.41 61.0827 1264.15 62.128 1263.64 63.408L1263.51 63.792C1263.21 64.432 1263.06 65.072 1263.06 65.712C1263.06 66.224 1263.25 66.6507 1263.64 66.992C1263.94 67.2907 1264.34 67.44 1264.85 67.44C1265.96 67.44 1266.99 66.8427 1267.93 65.648C1268.91 64.4107 1269.63 63.152 1270.1 61.872C1270.57 60.592 1270.96 59.2907 1271.25 57.968L1272.73 58.992C1271.96 61.936 1270.7 64.624 1268.95 67.056C1267.2 69.4453 1265.09 70.64 1262.61 70.64C1261.08 70.64 1259.8 70.2773 1258.77 69.552C1257.75 68.8267 1257.24 67.7173 1257.24 66.224C1257.24 65.5413 1257.41 64.688 1257.75 63.664L1258.71 61.168C1258.84 60.8693 1258.97 60.4427 1259.09 59.888C1259.18 59.2907 1259.22 58.7787 1259.22 58.352C1259.22 56.5173 1258.11 55.6 1255.89 55.6H1252.18L1247.06 70H1240.98ZM1302.32 41.52H1308.4C1307.89 42.928 1306.69 46.32 1304.81 51.696C1304.64 52.208 1304.39 52.912 1304.05 53.808C1303.75 54.6613 1303.53 55.2587 1303.41 55.6C1303.23 56.112 1302.98 56.7947 1302.64 57.648C1302.34 58.5013 1302.17 59.0133 1302.13 59.184C1301.87 59.9093 1301.55 60.848 1301.17 62C1300.82 62.9387 1300.65 63.472 1300.65 63.6C1300.4 64.4533 1300.27 65.2213 1300.27 65.904C1300.27 67.056 1300.87 67.632 1302.06 67.632C1303.43 67.632 1304.66 66.9067 1305.77 65.456C1306.88 64.0053 1307.74 62.448 1308.33 60.784C1308.72 59.504 1308.93 58.5653 1308.97 57.968L1310.45 58.992C1309.93 61.936 1308.67 64.624 1306.67 67.056C1304.71 69.4453 1302.36 70.64 1299.63 70.64C1298.09 70.64 1296.86 70.2987 1295.92 69.616C1294.98 68.8907 1294.51 67.8027 1294.51 66.352C1294.51 66.096 1294.55 65.6267 1294.64 64.944C1294.68 64.7733 1294.72 64.56 1294.77 64.304C1294.85 64.0053 1294.89 63.792 1294.89 63.664C1292.21 68.3147 1288.94 70.64 1285.1 70.64C1283.31 70.64 1281.84 70.1067 1280.69 69.04C1279.53 67.9733 1278.96 66.5653 1278.96 64.816C1278.96 63.408 1279.19 61.9573 1279.66 60.464L1285.74 43.312H1279.98L1280.62 41.52L1292.65 40.88L1285.74 60.208C1285.06 62.128 1284.72 63.664 1284.72 64.816C1284.72 65.712 1284.97 66.3947 1285.49 66.864C1286 67.376 1286.64 67.632 1287.41 67.632C1289.41 67.632 1291.25 66.5227 1292.91 64.304C1294.57 62.0427 1295.87 59.6107 1296.81 57.008L1302.32 41.52Z" fill="#FD5519"/>
<rect x="1" y="93" width="1444" height="165" rx="12" fill="#FFE9DE"/>
<rect x="815" y="40" width="332" height="122" rx="28" fill="#FFE9DE" stroke="black" stroke-width="6"/>
<path d="M889.304 74.88L888.28 73.408C891.139 68.928 894.957 66.688 899.736 66.688C907.459 66.688 911.32 71.872 911.32 82.24C911.32 85.3973 910.851 88.704 909.912 92.16C909.016 95.5733 907.715 98.8373 906.008 101.952C904.344 105.024 902.083 107.584 899.224 109.632C896.408 111.637 893.315 112.64 889.944 112.64C888.323 112.64 886.936 112.384 885.784 111.872C882.328 110.592 880.6 107.669 880.6 103.104C880.6 99.904 881.304 96.768 882.712 93.696C884.163 90.624 886.232 88.064 888.92 86.016C891.651 83.9253 894.659 82.88 897.944 82.88C901.357 82.88 903.683 84.4373 904.92 87.552C905.133 86.3573 905.325 85.2053 905.496 84.096C905.624 82.9867 905.688 81.8133 905.688 80.576C905.688 72.9387 903.213 69.12 898.264 69.12C894.765 69.12 891.779 71.04 889.304 74.88ZM891.8 110.72C893.549 110.72 895.192 109.952 896.728 108.416C898.307 106.88 899.523 105.237 900.376 103.488C901.272 101.696 901.976 99.8827 902.488 98.048C903.128 95.744 903.448 93.4827 903.448 91.264C903.448 89.472 903.085 87.9573 902.36 86.72C901.677 85.44 900.504 84.8 898.84 84.8C897.005 84.8 895.277 85.504 893.656 86.912C892.077 88.32 890.776 90.0693 889.752 92.16C888.771 94.2507 888.003 96.4053 887.448 98.624C886.893 100.843 886.616 102.827 886.616 104.576C886.616 106.325 887.043 107.797 887.896 108.992C888.792 110.144 890.093 110.72 891.8 110.72ZM932.321 87.36C932.321 86.464 932.108 85.7813 931.681 85.312C931.212 84.8427 930.508 84.608 929.569 84.608C927.35 84.608 925.238 86.1867 923.233 89.344C921.228 92.5013 920.012 95.4667 919.585 98.24C921.078 98.0267 922.166 97.8133 922.849 97.6C925.196 97.0453 927.35 95.7867 929.313 93.824C931.318 91.8187 932.321 89.664 932.321 87.36ZM930.145 82.88C932.193 82.88 933.985 83.2853 935.521 84.096C937.057 84.864 937.825 86.1653 937.825 88C937.825 89.8347 937.185 91.52 935.905 93.056C934.625 94.592 932.982 95.8293 930.977 96.768C929.014 97.664 927.03 98.3893 925.025 98.944C923.062 99.456 921.164 99.7973 919.329 99.968C919.158 101.419 919.073 102.528 919.073 103.296C919.073 105.344 919.5 107.029 920.353 108.352C921.206 109.675 922.593 110.336 924.513 110.336C926.604 110.336 928.46 109.504 930.081 107.84C931.745 106.133 932.961 104.149 933.729 101.888L935.073 103.04C934.092 105.813 932.492 108.117 930.273 109.952C928.097 111.744 925.601 112.64 922.785 112.64C919.585 112.64 917.132 111.765 915.425 110.016C913.718 108.267 912.865 105.792 912.865 102.592C912.865 97.472 914.486 92.9067 917.729 88.896C921.014 84.8853 925.153 82.88 930.145 82.88ZM942.318 102.016C942.318 97.4933 943.726 92.4587 946.542 86.912C949.4 81.3653 952.728 77.44 956.526 75.136C958.104 74.0267 960.728 73.088 964.398 72.32C966.232 71.936 967.278 71.7227 967.534 71.68C968.472 71.4667 969.219 71.2747 969.774 71.104C970.926 70.7627 971.8 70.2507 972.398 69.568C972.995 68.8853 973.592 67.8613 974.19 66.496L975.662 67.392C974.851 71.616 973.571 74.4107 971.822 75.776C970.072 77.1413 967.022 78.144 962.67 78.784C962.328 78.8693 961.88 78.976 961.326 79.104C960.771 79.1893 960.451 79.232 960.366 79.232C953.496 80.5973 948.739 85.248 946.094 93.184C949.038 87.2107 953.496 84.224 959.47 84.224C962.712 84.224 965.272 85.0773 967.15 86.784C969.07 88.4907 970.03 90.944 970.03 94.144C970.03 97.0453 969.24 99.9253 967.662 102.784C966.126 105.6 964.014 107.947 961.326 109.824C958.68 111.659 955.886 112.576 952.942 112.576C949.614 112.576 947.011 111.659 945.134 109.824C943.256 107.947 942.318 105.344 942.318 102.016ZM959.15 85.952C957.144 85.952 955.267 87.1253 953.518 89.472C951.768 91.776 950.467 94.336 949.614 97.152C948.76 99.968 948.334 102.443 948.334 104.576C948.334 106.923 948.803 108.565 949.742 109.504C950.552 110.443 951.64 110.912 953.006 110.912C954.2 110.912 955.352 110.464 956.462 109.568C957.614 108.629 958.595 107.456 959.406 106.048C960.259 104.64 960.963 103.253 961.518 101.888C962.115 100.523 962.563 99.2427 962.862 98.048C963.459 95.744 963.758 93.6107 963.758 91.648C963.758 89.984 963.374 88.6187 962.606 87.552C961.88 86.4853 960.728 85.952 959.15 85.952ZM998.693 83.52H1004.77C1004.26 84.928 1003.07 88.32 1001.19 93.696C1001.02 94.208 1000.76 94.912 1000.42 95.808C1000.12 96.6613 999.909 97.2587 999.781 97.6C999.61 98.112 999.354 98.7947 999.013 99.648C998.714 100.501 998.543 101.013 998.501 101.184C998.245 101.909 997.925 102.848 997.541 104C997.199 104.939 997.029 105.472 997.029 105.6C996.773 106.453 996.645 107.221 996.645 107.904C996.645 109.056 997.242 109.632 998.437 109.632C999.802 109.632 1001.04 108.907 1002.15 107.456C1003.26 106.005 1004.11 104.448 1004.71 102.784C1005.09 101.504 1005.31 100.565 1005.35 99.968L1006.82 100.992C1006.31 103.936 1005.05 106.624 1003.04 109.056C1001.08 111.445 998.735 112.64 996.005 112.64C994.469 112.64 993.231 112.299 992.293 111.616C991.354 110.891 990.885 109.803 990.885 108.352C990.885 108.096 990.927 107.627 991.013 106.944C991.055 106.773 991.098 106.56 991.141 106.304C991.226 106.005 991.269 105.792 991.269 105.664C988.581 110.315 985.317 112.64 981.477 112.64C979.685 112.64 978.213 112.107 977.061 111.04C975.909 109.973 975.333 108.565 975.333 106.816C975.333 105.408 975.567 103.957 976.036 102.464L982.117 85.312H976.357L976.997 83.52L989.029 82.88L982.117 102.208C981.434 104.128 981.093 105.664 981.093 106.816C981.093 107.712 981.349 108.395 981.861 108.864C982.373 109.376 983.013 109.632 983.781 109.632C985.786 109.632 987.621 108.523 989.285 106.304C990.949 104.043 992.25 101.611 993.189 99.008L998.693 83.52ZM1028.65 99.584L1033.71 85.248H1027.37C1025.71 90.496 1024.17 94.9333 1022.77 98.56C1020.16 105.429 1017.71 109.696 1015.41 111.36C1014.17 112.213 1012.87 112.64 1011.5 112.64C1010.01 112.64 1008.81 112.192 1007.92 111.296C1006.98 110.357 1006.51 109.163 1006.51 107.712C1006.51 106.645 1006.85 105.728 1007.53 104.96C1008.22 104.149 1009.07 103.744 1010.09 103.744C1010.99 103.744 1011.67 104 1012.14 104.512C1012.65 105.024 1012.91 105.728 1012.91 106.624C1012.91 107.563 1012.68 108.309 1012.21 108.864C1011.74 109.333 1011.12 109.739 1010.35 110.08C1010.61 110.421 1011.03 110.592 1011.63 110.592C1013.81 110.592 1015.94 108.587 1018.03 104.576C1020.16 100.523 1022.47 94.2933 1024.94 85.888L1019.57 85.248V83.52H1040.37C1039.85 84.928 1038.66 88.32 1036.78 93.696C1036.61 94.208 1036.36 94.912 1036.01 95.808C1035.72 96.6613 1035.5 97.2587 1035.37 97.6C1035.2 98.112 1034.95 98.7947 1034.61 99.648C1034.31 100.501 1034.14 101.013 1034.09 101.184C1033.84 101.909 1033.52 102.848 1033.13 104C1032.84 104.939 1032.66 105.472 1032.62 105.6C1032.41 106.368 1032.3 107.093 1032.3 107.776C1032.3 109.013 1032.94 109.632 1034.22 109.632C1035.84 109.632 1037.34 108.501 1038.7 106.24C1040.07 103.979 1040.84 101.888 1041.01 99.968L1042.48 100.992C1041.75 104.149 1040.52 106.88 1038.77 109.184C1037.02 111.488 1034.76 112.64 1031.98 112.64C1031 112.64 1030.17 112.512 1029.49 112.256C1027.61 111.403 1026.67 109.824 1026.67 107.52C1026.67 106.496 1026.82 105.451 1027.12 104.384C1027.42 103.317 1027.93 101.717 1028.65 99.584ZM1074.52 99.584L1080.22 83.52H1086.3L1078.94 104.128C1078.55 105.28 1078.34 106.005 1078.3 106.304C1078.17 106.816 1078.1 107.307 1078.1 107.776C1078.1 108.288 1078.27 108.715 1078.62 109.056C1078.91 109.44 1079.4 109.632 1080.09 109.632C1081.75 109.632 1083.22 108.523 1084.5 106.304C1085.83 104.085 1086.62 101.973 1086.87 99.968L1088.34 100.992C1087.62 104.149 1086.38 106.88 1084.63 109.184C1082.88 111.488 1080.62 112.64 1077.85 112.64C1076.27 112.64 1074.99 112.235 1074.01 111.424C1073.03 110.571 1072.54 109.376 1072.54 107.84C1072.54 106.475 1072.9 104.619 1073.62 102.272C1073.75 101.675 1074.05 100.779 1074.52 99.584ZM1071 98.304C1071 102.144 1069.36 105.493 1066.07 108.352C1062.83 111.211 1059.27 112.64 1055.38 112.64C1052.82 112.64 1050.92 111.936 1049.69 110.528C1049.05 109.973 1048.6 109.269 1048.34 108.416C1048.04 107.691 1047.9 106.88 1047.9 105.984C1047.9 104.704 1048.17 103.36 1048.73 101.952L1054.68 85.248H1048.66L1049.3 83.52L1061.59 82.88L1056.41 97.152C1057.69 95.616 1058.99 94.5067 1060.31 93.824C1061.68 93.1413 1063.32 92.8 1065.24 92.8C1066.99 92.8 1068.38 93.2907 1069.4 94.272C1070.47 95.2107 1071 96.5547 1071 98.304ZM1061.72 95.744C1059.76 95.744 1057.92 97.1307 1056.22 99.904C1054.51 102.677 1053.66 105.195 1053.66 107.456C1053.66 108.48 1053.93 109.312 1054.49 109.952C1055.04 110.592 1055.83 110.912 1056.86 110.912C1058.95 110.912 1060.78 109.611 1062.36 107.008C1063.98 104.405 1064.79 101.931 1064.79 99.584C1064.79 97.024 1063.77 95.744 1061.72 95.744Z" fill="#FD5519"/>
<rect x="1" y="130" width="1290" height="84" rx="12" fill="#FFE9DE"/>
<path d="M798 283H-30" stroke="black" stroke-width="6" stroke-linecap="round"/>
<path d="M812 93H-16" stroke="black" stroke-width="6" stroke-linecap="round"/>
<path d="M1529 130H1150" stroke="black" stroke-width="6" stroke-linecap="round"/>
<rect x="590" y="86" width="448" height="122" rx="28" fill="#FFE9DE" stroke="black" stroke-width="6"/>
<rect y="176" width="1445" height="130" rx="12" fill="#FFE9DE"/>
<path d="M1736 92H1357" stroke="black" stroke-width="6" stroke-linecap="round"/>
<path d="M1445 176L1037.95 177.125" stroke="black" stroke-width="6" stroke-linecap="round"/>
<path d="M590 174H-4" stroke="black" stroke-width="6"/>
<path d="M594 130H0" stroke="black" stroke-width="6"/>
</svg>
