<svg width="658" height="834" viewBox="0 0 658 834" fill="none" xmlns="http://www.w3.org/2000/svg">
<rect x="2" y="2" width="654" height="830" rx="60" fill="#FFE8E0" stroke="#FD5519" stroke-width="4"/>
<rect x="49" y="45" width="558" height="176" rx="27" fill="#FFE8E0" stroke="#FD5519" stroke-width="4"/>
<rect x="65" y="62" width="527" height="142" rx="27" fill="#FFE8E0" stroke="#FD5519" stroke-width="4"/>
<rect x="49" y="267" width="98" height="88" rx="27" fill="#FFE8E0" stroke="#FD5519" stroke-width="4"/>
<rect x="50" y="373" width="98" height="88" rx="27" fill="#FFE8E0" stroke="#FD5519" stroke-width="4"/>
<rect x="50" y="479" width="98" height="88" rx="27" fill="#FFE8E0" stroke="#FD5519" stroke-width="4"/>
<rect x="48" y="585" width="98" height="88" rx="27" fill="#FFE8E0" stroke="#FD5519" stroke-width="4"/>
<rect x="50" y="691" width="98" height="88" rx="27" fill="#FFE8E0" stroke="#FD5519" stroke-width="4"/>
<rect x="165" y="267" width="98" height="88" rx="27" fill="#FFE8E0" stroke="#FD5519" stroke-width="4"/>
<rect x="166" y="373" width="98" height="88" rx="27" fill="#FFE8E0" stroke="#FD5519" stroke-width="4"/>
<rect x="166" y="479" width="98" height="88" rx="27" fill="#FFE8E0" stroke="#FD5519" stroke-width="4"/>
<rect x="164" y="585" width="98" height="88" rx="27" fill="#FFE8E0" stroke="#FD5519" stroke-width="4"/>
<rect x="166" y="691" width="98" height="88" rx="27" fill="#FFE8E0" stroke="#FD5519" stroke-width="4"/>
<rect x="277" y="267" width="98" height="88" rx="27" fill="#FFE8E0" stroke="#FD5519" stroke-width="4"/>
<rect x="278" y="373" width="98" height="88" rx="27" fill="#FFE8E0" stroke="#FD5519" stroke-width="4"/>
<rect x="278" y="479" width="98" height="88" rx="27" fill="#FFE8E0" stroke="#FD5519" stroke-width="4"/>
<rect x="276" y="585" width="98" height="88" rx="27" fill="#FFE8E0" stroke="#FD5519" stroke-width="4"/>
<rect x="278" y="691" width="98" height="88" rx="27" fill="#FFE8E0" stroke="#FD5519" stroke-width="4"/>
<rect x="393" y="267" width="98" height="88" rx="27" fill="#FFE8E0" stroke="#FD5519" stroke-width="4"/>
<rect x="394" y="373" width="98" height="88" rx="27" fill="#FFE8E0" stroke="#FD5519" stroke-width="4"/>
<rect x="394" y="479" width="98" height="88" rx="27" fill="#FFE8E0" stroke="#FD5519" stroke-width="4"/>
<rect x="392" y="585" width="98" height="88" rx="27" fill="#FFE8E0" stroke="#FD5519" stroke-width="4"/>
<rect x="394" y="691" width="98" height="88" rx="27" fill="#FFE8E0" stroke="#FD5519" stroke-width="4"/>
<rect x="509" y="267" width="98" height="88" rx="27" fill="#FFE8E0" stroke="#FD5519" stroke-width="4"/>
<rect x="510" y="373" width="98" height="88" rx="27" fill="#FFE8E0" stroke="#FD5519" stroke-width="4"/>
<rect x="510" y="479" width="98" height="88" rx="27" fill="#FFE8E0" stroke="#FD5519" stroke-width="4"/>
<rect x="508" y="585" width="98" height="194" rx="27" fill="#FFE8E0" stroke="#FD5519" stroke-width="4"/>
<path d="M87.256 305.256C84.0773 305.256 81.56 304.147 79.704 301.928C77.848 299.709 76.92 297.011 76.92 293.832C76.92 290.525 77.8373 287.784 79.672 285.608C81.528 283.411 84.056 282.312 87.256 282.312C90.52 282.312 93.048 283.4 94.84 285.576C96.632 287.752 97.528 290.483 97.528 293.768C97.528 295.731 97.1013 297.587 96.248 299.336C95.416 301.064 94.2 302.483 92.6 303.592C91 304.701 89.2187 305.256 87.256 305.256ZM87.256 283.176C85.9973 283.176 84.888 283.528 83.928 284.232C82.9893 284.936 82.2747 285.853 81.784 286.984C81.2933 288.093 80.9307 289.235 80.696 290.408C80.4613 291.581 80.344 292.755 80.344 293.928C80.344 295.869 80.6853 297.736 81.368 299.528C82.072 301.299 83.1387 302.632 84.568 303.528C85.3787 304.061 86.2747 304.328 87.256 304.328C88.8133 304.328 90.1467 303.709 91.256 302.472C92.3653 301.235 93.144 299.773 93.592 298.088C93.9333 296.872 94.104 295.485 94.104 293.928C94.104 292.712 93.9973 291.528 93.784 290.376C93.5707 289.224 93.2187 288.083 92.728 286.952C92.2587 285.821 91.544 284.915 90.584 284.232C89.6453 283.528 88.536 283.176 87.256 283.176ZM107.452 305H100.476V304.136L103.516 303.816V283.432H100.476V282.568H106.684L117.148 299.56V283.752L114.108 283.432V282.568H121.116V283.432L118.076 283.752V305.256H117.148L104.444 284.904V303.816L107.452 304.136V305Z" fill="black"/>
<path d="M202.15 609.38V606.95H224.2V609.38H217.45V644.57H224.2V647H202.15V644.57H208.9V609.38H202.15Z" fill="black"/>
<path d="M215.92 713.15C222.52 713.15 227.56 715.07 231.04 718.91C234.58 722.75 236.35 727.94 236.35 734.48C236.35 740.66 234.43 745.76 230.59 749.78C226.81 753.74 221.89 755.72 215.83 755.72C209.23 755.72 203.86 753.8 199.72 749.96C195.64 746.06 193.6 740.9 193.6 734.48C193.6 728.12 195.73 722.99 199.99 719.09C204.31 715.13 209.62 713.15 215.92 713.15ZM218.8 752.66C223.36 752.66 226.96 750.83 229.6 747.17C232.24 743.45 233.56 739.22 233.56 734.48C233.56 725.72 230.35 719.9 223.93 717.02C222.01 716.3 220.09 715.94 218.17 715.94C213.13 715.94 209.29 717.74 206.65 721.34C204.07 724.94 202.78 729.32 202.78 734.48C202.78 739.58 204.22 743.9 207.1 747.44C209.98 750.92 213.88 752.66 218.8 752.66Z" fill="black"/>
<path d="M323.94 736.28C322.98 735.26 322.5 733.97 322.5 732.41C322.5 730.85 322.98 729.59 323.94 728.63C324.96 727.61 326.25 727.1 327.81 727.1C329.43 727.1 330.72 727.58 331.68 728.54C332.64 729.5 333.12 730.79 333.12 732.41C333.12 733.97 332.61 735.26 331.59 736.28C330.63 737.24 329.37 737.72 327.81 737.72C326.25 737.72 324.96 737.24 323.94 736.28Z" fill="black"/>
<path d="M425.04 729.56V723.17H466.26V729.56H425.04ZM425.04 747.47V741.08H466.26V747.47H425.04Z" fill="black"/>
<path d="M560.89 680.08H578.8V686.47H560.89V705.01H554.41V686.47H536.5V680.08H554.41V661.45H560.89V680.08Z" fill="black"/>
<path d="M563.98 395.6L562.18 412.88L579.46 408.02L580.72 416.3L564.16 417.65L574.87 431.87L567.13 436.1L559.48 420.35L552.55 436.1L544.54 431.87L555.07 417.65L538.69 416.3L539.95 408.02L557.05 412.88L555.16 395.6H563.98Z" fill="black"/>
<path d="M542 529.52V522.32H577.46V529.52H542Z" fill="black"/>
<path d="M339.47 619.73C339.47 623.75 337.7 627.74 334.16 631.7C330.68 635.66 326.87 638.36 322.73 639.8H336.86L341.72 629.09H344.15L341.72 647H308.6V644.84C314.3 643.64 319.37 640.88 323.81 636.56C328.31 632.24 330.56 627.32 330.56 621.8C330.56 618.5 329.75 615.86 328.13 613.88C326.57 611.84 324.17 610.82 320.93 610.82C318.17 610.82 315.92 611.63 314.18 613.25C312.5 614.87 311.66 617.03 311.66 619.73C311.66 620.99 311.78 621.95 312.02 622.61C312.86 621.35 314.03 620.72 315.53 620.72C316.85 620.72 317.93 621.14 318.77 621.98C319.49 622.82 319.85 623.84 319.85 625.04C319.85 626.18 319.43 627.17 318.59 628.01C317.75 628.85 316.73 629.27 315.53 629.27C314.51 629.27 313.58 629 312.74 628.46C310.22 627.08 308.96 624.29 308.96 620.09C308.96 615.77 310.46 612.35 313.46 609.83C316.52 607.31 320.21 606.05 324.53 606.05C328.97 606.05 332.57 607.28 335.33 609.74C338.09 612.14 339.47 615.47 339.47 619.73Z" fill="black"/>
<path d="M352.47 131.73C352.47 135.75 350.7 139.74 347.16 143.7C343.68 147.66 339.87 150.36 335.73 151.8H349.86L354.72 141.09H357.15L354.72 159H321.6V156.84C327.3 155.64 332.37 152.88 336.81 148.56C341.31 144.24 343.56 139.32 343.56 133.8C343.56 130.5 342.75 127.86 341.13 125.88C339.57 123.84 337.17 122.82 333.93 122.82C331.17 122.82 328.92 123.63 327.18 125.25C325.5 126.87 324.66 129.03 324.66 131.73C324.66 132.99 324.78 133.95 325.02 134.61C325.86 133.35 327.03 132.72 328.53 132.72C329.85 132.72 330.93 133.14 331.77 133.98C332.49 134.82 332.85 135.84 332.85 137.04C332.85 138.18 332.43 139.17 331.59 140.01C330.75 140.85 329.73 141.27 328.53 141.27C327.51 141.27 326.58 141 325.74 140.46C323.22 139.08 321.96 136.29 321.96 132.09C321.96 127.77 323.46 124.35 326.46 121.83C329.52 119.31 333.21 118.05 337.53 118.05C341.97 118.05 345.57 119.28 348.33 121.74C351.09 124.14 352.47 127.47 352.47 131.73ZM364.75 162.96C364.75 161.58 365.2 160.35 366.1 159.27C367.06 158.25 368.23 157.74 369.61 157.74C370.99 157.74 372.04 158.13 372.76 158.91C373.42 159.75 373.75 160.74 373.75 161.88C373.75 163.14 373.36 164.22 372.58 165.12C371.8 166.02 370.78 166.47 369.52 166.47C369.16 166.47 368.8 166.41 368.44 166.29C370.42 169.71 373.72 171.42 378.34 171.42C381.1 171.42 383.38 170.52 385.18 168.72C387.04 166.98 388.27 164.94 388.87 162.6C389.53 160.32 389.86 157.83 389.86 155.13C389.86 151.17 388.93 147.72 387.07 144.78C385.21 141.78 382.42 140.28 378.7 140.28C374.08 140.28 371.26 142.35 370.24 146.49H368.53V117.69H390.49L394.27 108.51H396.7L394.36 124.89H371.05V141C373.45 138.6 376.78 137.4 381.04 137.4C386.62 137.4 391 138.81 394.18 141.63C397.42 144.45 399.04 148.59 399.04 154.05C399.04 160.11 397.15 164.94 393.37 168.54C389.65 172.2 384.79 174.03 378.79 174.03C375.19 174.03 371.95 173.04 369.07 171.06C366.19 169.08 364.75 166.38 364.75 162.96ZM428.207 117.15C434.807 117.15 439.847 119.07 443.327 122.91C446.867 126.75 448.637 131.94 448.637 138.48C448.637 144.66 446.717 149.76 442.877 153.78C439.097 157.74 434.177 159.72 428.117 159.72C421.517 159.72 416.147 157.8 412.007 153.96C407.927 150.06 405.887 144.9 405.887 138.48C405.887 132.12 408.017 126.99 412.277 123.09C416.597 119.13 421.907 117.15 428.207 117.15ZM431.087 156.66C435.647 156.66 439.247 154.83 441.887 151.17C444.527 147.45 445.847 143.22 445.847 138.48C445.847 129.72 442.637 123.9 436.217 121.02C434.297 120.3 432.377 119.94 430.457 119.94C425.417 119.94 421.577 121.74 418.937 125.34C416.357 128.94 415.067 133.32 415.067 138.48C415.067 143.58 416.507 147.9 419.387 151.44C422.267 154.92 426.167 156.66 431.087 156.66ZM477.25 117.15C483.85 117.15 488.89 119.07 492.37 122.91C495.91 126.75 497.68 131.94 497.68 138.48C497.68 144.66 495.76 149.76 491.92 153.78C488.14 157.74 483.22 159.72 477.16 159.72C470.56 159.72 465.19 157.8 461.05 153.96C456.97 150.06 454.93 144.9 454.93 138.48C454.93 132.12 457.06 126.99 461.32 123.09C465.64 119.13 470.95 117.15 477.25 117.15ZM480.13 156.66C484.69 156.66 488.29 154.83 490.93 151.17C493.57 147.45 494.89 143.22 494.89 138.48C494.89 129.72 491.68 123.9 485.26 121.02C483.34 120.3 481.42 119.94 479.5 119.94C474.46 119.94 470.62 121.74 467.98 125.34C465.4 128.94 464.11 133.32 464.11 138.48C464.11 143.58 465.55 147.9 468.43 151.44C471.31 154.92 475.21 156.66 480.13 156.66ZM526.293 117.15C532.893 117.15 537.933 119.07 541.413 122.91C544.953 126.75 546.723 131.94 546.723 138.48C546.723 144.66 544.803 149.76 540.963 153.78C537.183 157.74 532.263 159.72 526.203 159.72C519.603 159.72 514.233 157.8 510.093 153.96C506.013 150.06 503.973 144.9 503.973 138.48C503.973 132.12 506.103 126.99 510.363 123.09C514.683 119.13 519.993 117.15 526.293 117.15ZM529.173 156.66C533.733 156.66 537.333 154.83 539.973 151.17C542.613 147.45 543.933 143.22 543.933 138.48C543.933 129.72 540.723 123.9 534.303 121.02C532.383 120.3 530.463 119.94 528.543 119.94C523.503 119.94 519.663 121.74 517.023 125.34C514.443 128.94 513.153 133.32 513.153 138.48C513.153 143.58 514.593 147.9 517.473 151.44C520.353 154.92 524.253 156.66 529.173 156.66Z" fill="black"/>
<path d="M439.09 597.05C443.59 597.05 447.43 598.16 450.61 600.38C453.85 602.6 455.47 605.84 455.47 610.1C455.47 614.12 454 617.51 451.06 620.27C448.12 622.97 444.61 624.56 440.53 625.04V625.4C443.47 625.58 446.08 626.06 448.36 626.84C450.7 627.62 452.71 629 454.39 630.98C456.07 632.96 456.91 635.42 456.91 638.36C456.91 640.52 456.46 642.56 455.56 644.48C453.94 647.42 451.63 649.64 448.63 651.14C445.63 652.64 442.36 653.39 438.82 653.39C434.8 653.39 431.41 652.46 428.65 650.6C425.95 648.8 424.6 646.01 424.6 642.23C424.6 640.79 425.08 639.56 426.04 638.54C427.06 637.58 428.29 637.1 429.73 637.1C431.05 637.1 432.1 637.46 432.88 638.18C433.66 638.9 434.05 639.89 434.05 641.15C434.05 642.41 433.63 643.46 432.79 644.3C431.83 645.14 430.75 645.56 429.55 645.56C428.95 645.56 428.38 645.47 427.84 645.29C429.22 648.95 432.28 650.78 437.02 650.78C440.56 650.78 443.23 649.55 445.03 647.09C446.89 644.69 447.82 641.66 447.82 638C447.82 634.1 446.86 631.25 444.94 629.45C443.02 627.59 440.11 626.66 436.21 626.66H433.87V624.23H436.21C439.69 624.23 442.27 623.06 443.95 620.72C445.69 618.32 446.56 615.32 446.56 611.72C446.56 604.4 443.05 600.74 436.03 600.74C433.15 600.74 430.96 601.58 429.46 603.26C427.84 604.88 427.03 606.71 427.03 608.75V609.56C427.03 609.68 427.09 609.92 427.21 610.28C427.63 609.74 428.11 609.32 428.65 609.02C429.37 608.72 430 608.57 430.54 608.57C431.86 608.57 432.94 608.99 433.78 609.83C434.56 610.67 434.95 611.72 434.95 612.98C434.95 614.12 434.53 615.11 433.69 615.95C432.73 616.79 431.68 617.21 430.54 617.21C428.68 617.21 427.21 616.46 426.13 614.96C425.11 613.4 424.6 611.66 424.6 609.74C424.6 605.72 425.98 602.6 428.74 600.38C431.56 598.16 435.01 597.05 439.09 597.05Z" fill="black"/>
<path d="M232.03 536H223.12V548.15H230.5V550.58H207.64V548.15H215.02V536H192.25V533.75L220.69 493.7H223.12V530.06H227.26L231.94 519.08H234.37L232.03 536ZM198.46 530.06H215.02V506.3L198.46 530.06Z" fill="black"/>
<path d="M310.42 539.96C310.42 538.58 310.87 537.35 311.77 536.27C312.73 535.25 313.9 534.74 315.28 534.74C316.66 534.74 317.71 535.13 318.43 535.91C319.09 536.75 319.42 537.74 319.42 538.88C319.42 540.14 319.03 541.22 318.25 542.12C317.47 543.02 316.45 543.47 315.19 543.47C314.83 543.47 314.47 543.41 314.11 543.29C316.09 546.71 319.39 548.42 324.01 548.42C326.77 548.42 329.05 547.52 330.85 545.72C332.71 543.98 333.94 541.94 334.54 539.6C335.2 537.32 335.53 534.83 335.53 532.13C335.53 528.17 334.6 524.72 332.74 521.78C330.88 518.78 328.09 517.28 324.37 517.28C319.75 517.28 316.93 519.35 315.91 523.49H314.2V494.69H336.16L339.94 485.51H342.37L340.03 501.89H316.72V518C319.12 515.6 322.45 514.4 326.71 514.4C332.29 514.4 336.67 515.81 339.85 518.63C343.09 521.45 344.71 525.59 344.71 531.05C344.71 537.11 342.82 541.94 339.04 545.54C335.32 549.2 330.46 551.03 324.46 551.03C320.86 551.03 317.62 550.04 314.74 548.06C311.86 546.08 310.42 543.38 310.42 539.96Z" fill="black"/>
<path d="M447.66 511.22C452.7 511.22 456.9 512.9 460.26 516.26C463.68 520.04 465.39 524.78 465.39 530.48C465.39 536.24 463.59 541.25 459.99 545.51C456.39 549.71 451.8 551.81 446.22 551.81C439.62 551.81 434.7 549.56 431.46 545.06C428.22 540.56 426.6 534.95 426.6 528.23C426.6 518.51 429.48 510.38 435.24 503.84C441.06 497.3 448.74 493.16 458.28 491.42L458.46 493.85C453.12 494.57 448.32 497.24 444.06 501.86C439.8 506.42 437.13 511.46 436.05 516.98L436.41 517.07C437.55 515.15 439.11 513.71 441.09 512.75C443.13 511.73 445.32 511.22 447.66 511.22ZM446.13 549.38C448.23 549.38 450 548.78 451.44 547.58C452.94 546.38 454.05 544.79 454.77 542.81C455.49 540.77 455.97 538.82 456.21 536.96C456.51 535.04 456.66 533.09 456.66 531.11C456.66 519.53 453.21 513.74 446.31 513.74C444.21 513.74 442.38 514.34 440.82 515.54C439.32 516.74 438.21 518.33 437.49 520.31C436.77 522.29 436.26 524.24 435.96 526.16C435.66 528.02 435.51 529.97 435.51 532.01C435.51 535.31 436.02 538.58 437.04 541.82C438.06 545 439.77 547.16 442.17 548.3C443.43 549.02 444.75 549.38 446.13 549.38Z" fill="black"/>
<path d="M206.96 442.88C206.78 442.46 206.69 442.07 206.69 441.71C206.69 440.69 207.05 439.82 207.77 439.1C208.49 438.32 209.48 437.93 210.74 437.93C211.94 437.93 212.9 438.29 213.62 439.01C214.34 439.73 214.7 440.66 214.7 441.8C214.7 443.18 214.22 444.29 213.26 445.13C212.36 445.97 211.19 446.39 209.75 446.39C207.77 446.39 206.12 445.88 204.8 444.86C203.48 443.9 202.82 442.46 202.82 440.54C202.82 439.1 203.15 437.81 203.81 436.67C204.47 435.53 205.01 434.54 205.43 433.7L227.48 397.34H205.88L200.93 408.05H198.5L201.56 390.14H233.51V392.39L207.5 434.96C207.32 435.26 207.08 435.71 206.78 436.31C206.48 436.91 206.24 437.36 206.06 437.66C205.64 438.44 205.43 439.34 205.43 440.36C205.43 440.9 205.55 441.44 205.79 441.98C206.09 442.52 206.48 442.82 206.96 442.88Z" fill="black"/>
<path d="M332.39 409.49L334.01 410.48C334.49 410.78 335.24 411.26 336.26 411.92C337.28 412.58 338.06 413.06 338.6 413.36C343.58 416.84 346.07 420.62 346.07 424.7C346.07 429.56 344.18 433.49 340.4 436.49C336.68 439.49 332.33 440.99 327.35 440.99C322.79 440.99 318.77 439.91 315.29 437.75C311.87 435.53 310.16 432.29 310.16 428.03C310.16 421.85 314.21 416.84 322.31 413C319.55 411.2 318.08 410.24 317.9 410.12C313.1 406.52 310.7 402.47 310.7 397.97C310.7 393.65 312.29 390.14 315.47 387.44C318.65 384.68 322.43 383.3 326.81 383.3C331.25 383.3 335.09 384.35 338.33 386.45C341.63 388.55 343.28 391.67 343.28 395.81C343.28 398.63 342.2 401.24 340.04 403.64C337.94 406.04 335.39 407.99 332.39 409.49ZM317.63 393.83C317.63 395.63 318.32 397.49 319.7 399.41C321.08 401.27 322.43 402.71 323.75 403.73C325.13 404.75 326.87 405.95 328.97 407.33L330.32 408.23C332.24 405.89 333.65 403.73 334.55 401.75C335.51 399.77 335.99 397.49 335.99 394.91C335.99 392.33 335.03 390.08 333.11 388.16C332.33 387.44 331.31 386.84 330.05 386.36C328.91 386 327.74 385.82 326.54 385.82C324.8 385.82 323.18 386.24 321.68 387.08C320.18 387.86 319.1 388.97 318.44 390.41C317.9 391.43 317.63 392.57 317.63 393.83ZM328.07 438.56C331.01 438.56 333.47 437.63 335.45 435.77C337.49 433.91 338.51 431.54 338.51 428.66C338.51 426.62 337.94 424.88 336.8 423.44C335.72 422 334.16 420.56 332.12 419.12C331.22 418.46 329.36 417.26 326.54 415.52L324.47 414.26C322.49 415.76 320.81 417.77 319.43 420.29C318.11 422.75 317.45 425.15 317.45 427.49C317.45 430.97 318.35 433.7 320.15 435.68C321.95 437.6 324.59 438.56 328.07 438.56Z" fill="black"/>
<path d="M441.24 422.94C436.08 422.94 431.88 421.32 428.64 418.08C425.46 414.78 423.87 410.58 423.87 405.48C423.87 399.96 425.64 395.34 429.18 391.62C432.78 387.84 437.28 385.95 442.68 385.95C448.86 385.95 453.54 388.02 456.72 392.16C459.9 396.3 461.49 401.49 461.49 407.73C461.49 417.45 458.73 425.28 453.21 431.22C447.75 437.16 440.22 441 430.62 442.74L430.44 440.31C435.78 439.59 440.58 436.92 444.84 432.3C449.1 427.74 451.77 422.7 452.85 417.18L452.49 417.09C451.47 418.95 449.91 420.39 447.81 421.41C445.71 422.43 443.52 422.94 441.24 422.94ZM442.77 388.38C440.19 388.38 438.09 389.37 436.47 391.35C434.85 393.27 433.8 395.37 433.32 397.65C432.84 399.87 432.6 402.27 432.6 404.85C432.6 407.19 432.9 409.5 433.5 411.78C434.16 414 435.3 416.01 436.92 417.81C438.54 419.55 440.55 420.42 442.95 420.42C445.11 420.42 446.94 419.52 448.44 417.72C450 415.86 451.08 413.82 451.68 411.6C452.28 409.32 452.58 407.1 452.58 404.94C452.58 403.26 452.4 401.55 452.04 399.81C451.74 398.07 451.26 396.3 450.6 394.5C449.94 392.7 448.92 391.23 447.54 390.09C446.16 388.95 444.57 388.38 442.77 388.38Z" fill="black"/>
<path d="M198.92 284.248H199.784V291.768H198.92C198.643 288.525 197.341 286.456 195.016 285.56C194.269 285.325 193.555 285.208 192.872 285.208C191.848 285.208 190.941 285.453 190.152 285.944C189.363 286.435 188.733 287.053 188.264 287.8C187.795 288.525 187.411 289.389 187.112 290.392C186.813 291.395 186.611 292.344 186.504 293.24C186.397 294.136 186.344 295.043 186.344 295.96C186.344 297.987 186.653 299.907 187.272 301.72C187.891 303.533 188.925 304.845 190.376 305.656C191.165 306.125 192.029 306.36 192.968 306.36C194.653 306.36 195.997 305.784 197 304.632C198.024 303.459 198.632 302.008 198.824 300.28H199.688V307.352H198.856L198.344 304.312C196.979 306.275 195.059 307.256 192.584 307.256C190.536 307.256 188.765 306.712 187.272 305.624C185.779 304.515 184.68 303.128 183.976 301.464C183.272 299.779 182.92 297.944 182.92 295.96C182.92 293.933 183.283 292.056 184.008 290.328C184.733 288.579 185.853 287.149 187.368 286.04C188.883 284.909 190.664 284.344 192.712 284.344C195.165 284.344 197.096 285.261 198.504 287.096L198.92 284.248ZM219.551 307H202.975V306.136H206.015V285.432H202.975V284.568H218.719V291.128H217.855L216.767 285.432H209.215V295.032H213.919L214.591 291.288H215.455V299.608H214.623L213.919 295.896H209.215V306.136H217.599L218.687 300.12H219.551V307Z" fill="black"/>
<path d="M94.912 510.432H91.872V531.136H94.912V532H85.632V531.136H88.672V512.192L81.504 532.288H80.64L73.92 512.224V530.688L76.96 531.136V532H69.568V531.136L72.992 530.688V510.432H69.952V509.568H76.512L82.304 527.296L88.608 509.568H94.912V510.432Z" fill="black"/>
<path d="M112.368 613.648H107.808V644.704H112.368V646H98.448V644.704H103.008V616.288L92.256 646.432H90.96L80.88 616.336V644.032L85.44 644.704V646H74.352V644.704L79.488 644.032V613.648H74.928V612.352H84.768L93.456 638.944L102.912 612.352H112.368V613.648ZM116.447 634.672V632.752H125.903V634.672H116.447Z" fill="black"/>
<path d="M107.368 719.648H102.808V750.704H107.368V752H93.448V750.704H98.008V722.288L87.256 752.432H85.96L75.88 722.336V750.032L80.44 750.704V752H69.352V750.704L74.488 750.032V719.648H69.928V718.352H79.768L88.456 744.944L97.912 718.352H107.368V719.648ZM124.455 733.376H134.007V736.784H124.455V746.672H120.999V736.784H111.447V733.376H120.999V723.44H124.455V733.376Z" fill="black"/>
<path d="M112.232 516.216C112.147 515.811 112.051 515.16 111.944 514.264C111.795 512.984 111.645 511.853 111.496 510.872C111.283 509.613 110.877 508.824 110.28 508.504C109.683 508.163 108.701 507.992 107.336 507.992H104.84V518.136H108.2V519H98.6V518.136H101.64V497.432H98.6V496.568H107.656C112.819 496.568 115.4 498.253 115.4 501.624C115.4 503.16 114.813 504.472 113.64 505.56C112.467 506.627 111.091 507.267 109.512 507.48V507.608C112.669 507.629 114.408 508.675 114.728 510.744C114.963 512.301 115.101 513.272 115.144 513.656C115.251 514.637 115.389 515.555 115.56 516.408C115.816 517.56 116.605 518.136 117.928 518.136H118.536V519H116.36C115.187 519 114.259 518.808 113.576 518.424C112.915 518.019 112.467 517.283 112.232 516.216ZM104.84 507.128H107.336C108.851 507.128 110.013 506.659 110.824 505.72C111.635 504.76 112.04 503.523 112.04 502.008C112.04 500.408 111.645 499.245 110.856 498.52C110.088 497.795 108.893 497.432 107.272 497.432H104.84V507.128Z" fill="black"/>
<path d="M115.92 524.248H116.784V531.768H115.92C115.643 528.525 114.341 526.456 112.016 525.56C111.269 525.325 110.555 525.208 109.872 525.208C108.848 525.208 107.941 525.453 107.152 525.944C106.363 526.435 105.733 527.053 105.264 527.8C104.795 528.525 104.411 529.389 104.112 530.392C103.813 531.395 103.611 532.344 103.504 533.24C103.397 534.136 103.344 535.043 103.344 535.96C103.344 537.987 103.653 539.907 104.272 541.72C104.891 543.533 105.925 544.845 107.376 545.656C108.165 546.125 109.029 546.36 109.968 546.36C111.653 546.36 112.997 545.784 114 544.632C115.024 543.459 115.632 542.008 115.824 540.28H116.688V547.352H115.856L115.344 544.312C113.979 546.275 112.059 547.256 109.584 547.256C107.536 547.256 105.765 546.712 104.272 545.624C102.779 544.515 101.68 543.128 100.976 541.464C100.272 539.779 99.92 537.944 99.92 535.96C99.92 533.933 100.283 532.056 101.008 530.328C101.733 528.579 102.853 527.149 104.368 526.04C105.883 524.909 107.664 524.344 109.712 524.344C112.165 524.344 114.096 525.261 115.504 527.096L115.92 524.248Z" fill="black"/>
<path d="M84.544 400.168H97.28V404.712H84.544V417.896H79.936V404.712H67.2V400.168H79.936V386.92H84.544V400.168Z" fill="black"/>
<path d="M330.64 297.04H326.84V322.92H330.64V324H319.04V322.92H322.84V299.24L313.88 324.36H312.8L304.4 299.28V322.36L308.2 322.92V324H298.96V322.92L303.24 322.36V297.04H299.44V295.96H307.64L314.88 318.12L322.76 295.96H330.64V297.04ZM355.079 315.24V297.44L351.279 297.04V295.96H360.079V297.04L356.279 297.44V315.64C356.279 318.44 355.466 320.587 353.839 322.08C352.212 323.573 350.026 324.32 347.279 324.32C344.399 324.32 342.039 323.6 340.199 322.16C338.359 320.693 337.439 318.587 337.439 315.84V297.04H333.639V295.96H345.239V297.04H341.439V315.2C341.439 320.453 343.652 323.08 348.079 323.08C350.266 323.08 351.972 322.32 353.199 320.8C354.452 319.28 355.079 317.427 355.079 315.24Z" fill="black"/>
<path d="M428.424 328L453.864 293.728H457.608L432.168 328H428.424ZM432.36 314.752C430.6 314.752 429.24 314.16 428.28 312.976C427.32 311.76 426.84 310.032 426.84 307.792C426.84 306.864 426.92 305.776 427.08 304.528C427.24 303.28 427.512 302 427.896 300.688C428.312 299.376 428.856 298.16 429.528 297.04C430.232 295.888 431.112 294.976 432.168 294.304C433.224 293.6 434.488 293.248 435.96 293.248C437.784 293.248 439.176 293.824 440.136 294.976C441.096 296.096 441.576 297.712 441.576 299.824C441.576 300.688 441.48 301.76 441.288 303.04C441.128 304.288 440.84 305.6 440.424 306.976C440.008 308.32 439.432 309.584 438.696 310.768C437.992 311.952 437.112 312.912 436.056 313.648C435.032 314.384 433.8 314.752 432.36 314.752ZM432.696 311.584C433.528 311.584 434.248 311.28 434.856 310.672C435.496 310.032 436.024 309.232 436.44 308.272C436.856 307.28 437.176 306.256 437.4 305.2C437.656 304.144 437.832 303.152 437.928 302.224C438.056 301.296 438.12 300.592 438.12 300.112C438.12 298.8 437.912 297.856 437.496 297.28C437.08 296.672 436.472 296.368 435.672 296.368C434.84 296.368 434.12 296.656 433.512 297.232C432.904 297.808 432.392 298.544 431.976 299.44C431.56 300.336 431.224 301.312 430.968 302.368C430.744 303.392 430.568 304.384 430.44 305.344C430.344 306.304 430.296 307.104 430.296 307.744C430.296 309.024 430.488 309.984 430.872 310.624C431.288 311.264 431.896 311.584 432.696 311.584ZM449.976 328.48C448.216 328.48 446.856 327.888 445.896 326.704C444.936 325.52 444.456 323.808 444.456 321.568C444.456 320.608 444.536 319.504 444.696 318.256C444.856 316.976 445.128 315.68 445.512 314.368C445.928 313.056 446.488 311.84 447.192 310.72C447.896 309.6 448.76 308.704 449.784 308.032C450.84 307.328 452.104 306.976 453.576 306.976C455.432 306.976 456.84 307.552 457.8 308.704C458.76 309.824 459.24 311.424 459.24 313.504C459.24 314.368 459.144 315.44 458.952 316.72C458.76 317.968 458.456 319.28 458.04 320.656C457.624 322 457.064 323.28 456.36 324.496C455.656 325.68 454.776 326.64 453.72 327.376C452.664 328.112 451.416 328.48 449.976 328.48ZM450.312 325.312C451.144 325.312 451.864 325.008 452.472 324.4C453.112 323.76 453.64 322.96 454.056 322C454.472 321.008 454.792 319.984 455.016 318.928C455.272 317.84 455.448 316.848 455.544 315.952C455.672 315.024 455.736 314.32 455.736 313.84C455.736 312.528 455.528 311.584 455.112 311.008C454.696 310.4 454.088 310.096 453.288 310.096C452.456 310.096 451.736 310.384 451.128 310.96C450.52 311.536 450.008 312.272 449.592 313.168C449.208 314.064 448.888 315.04 448.632 316.096C448.408 317.12 448.232 318.112 448.104 319.072C448.008 320.032 447.96 320.832 447.96 321.472C447.96 322.752 448.152 323.712 448.536 324.352C448.92 324.992 449.512 325.312 450.312 325.312Z" fill="black"/>
<path d="M552.8 328.104C552.8 326.44 553.312 325.096 554.336 324.072C555.424 322.984 556.8 322.44 558.464 322.44C560.192 322.44 561.568 322.952 562.592 323.976C563.616 325 564.128 326.376 564.128 328.104C564.128 329.896 563.616 331.304 562.592 332.328C561.632 333.288 560.256 333.768 558.464 333.768C556.672 333.768 555.296 333.256 554.336 332.232C553.312 331.272 552.8 329.896 552.8 328.104ZM552.8 295.944C552.8 294.28 553.312 292.936 554.336 291.912C555.424 290.824 556.8 290.28 558.464 290.28C560.192 290.28 561.568 290.792 562.592 291.816C563.616 292.84 564.128 294.216 564.128 295.944C564.128 297.736 563.616 299.144 562.592 300.168C561.632 301.128 560.256 301.608 558.464 301.608C556.672 301.608 555.296 301.096 554.336 300.072C553.312 299.112 552.8 297.736 552.8 295.944Z" fill="black"/>
<path d="M242.92 316.248H243.784V323.768H242.92C242.643 320.525 241.341 318.456 239.016 317.56C238.269 317.325 237.555 317.208 236.872 317.208C235.848 317.208 234.941 317.453 234.152 317.944C233.363 318.435 232.733 319.053 232.264 319.8C231.795 320.525 231.411 321.389 231.112 322.392C230.813 323.395 230.611 324.344 230.504 325.24C230.397 326.136 230.344 327.043 230.344 327.96C230.344 329.987 230.653 331.907 231.272 333.72C231.891 335.533 232.925 336.845 234.376 337.656C235.165 338.125 236.029 338.36 236.968 338.36C238.653 338.36 239.997 337.784 241 336.632C242.024 335.459 242.632 334.008 242.824 332.28H243.688V339.352H242.856L242.344 336.312C240.979 338.275 239.059 339.256 236.584 339.256C234.536 339.256 232.765 338.712 231.272 337.624C229.779 336.515 228.68 335.128 227.976 333.464C227.272 331.779 226.92 329.944 226.92 327.96C226.92 325.933 227.283 324.056 228.008 322.328C228.733 320.579 229.853 319.149 231.368 318.04C232.883 316.909 234.664 316.344 236.712 316.344C239.165 316.344 241.096 317.261 242.504 319.096L242.92 316.248Z" fill="black"/>
<path d="M105.4 435.792V430.672H130.616V435.792H105.4Z" fill="black"/>
<path d="M89.456 322.12L97.616 344.136H100.656V345H91.12V344.136H94.16L91.92 337.896H84.368L82.48 343.688L85.2 344.136V345H78.32V344.136L81.52 343.656L88.56 322.12H89.456ZM88.048 326.504L84.656 337.032H91.568L88.048 326.504ZM117.451 322.248H118.315V329.768H117.451C117.174 326.525 115.873 324.456 113.547 323.56C112.801 323.325 112.086 323.208 111.403 323.208C110.379 323.208 109.473 323.453 108.683 323.944C107.894 324.435 107.265 325.053 106.795 325.8C106.326 326.525 105.942 327.389 105.643 328.392C105.345 329.395 105.142 330.344 105.035 331.24C104.929 332.136 104.875 333.043 104.875 333.96C104.875 335.987 105.185 337.907 105.803 339.72C106.422 341.533 107.457 342.845 108.907 343.656C109.697 344.125 110.561 344.36 111.499 344.36C113.185 344.36 114.529 343.784 115.531 342.632C116.555 341.459 117.163 340.008 117.355 338.28H118.219V345.352H117.387L116.875 342.312C115.51 344.275 113.59 345.256 111.115 345.256C109.067 345.256 107.297 344.712 105.803 343.624C104.31 342.515 103.211 341.128 102.507 339.464C101.803 337.779 101.451 335.944 101.451 333.96C101.451 331.933 101.814 330.056 102.539 328.328C103.265 326.579 104.385 325.149 105.899 324.04C107.414 322.909 109.195 322.344 111.243 322.344C113.697 322.344 115.627 323.261 117.035 325.096L117.451 322.248Z" fill="black"/>
<path d="M64 313H129" stroke="#FD5519" stroke-width="3" stroke-linecap="round"/>
<path d="M538 311H577" stroke="black" stroke-width="3" stroke-linecap="round"/>
<path d="M196 338.205L245.434 296" stroke="#FD5519" stroke-width="3" stroke-linecap="round"/>
<path d="M78 438.205L127.434 396" stroke="#FD5519" stroke-width="3" stroke-linecap="round"/>
</svg>
